<?xml version="1.0" standalone="no"?>
<!DOCTYPE svg PUBLIC "-//W3C//DTD SVG 20010904//EN"
 "http://www.w3.org/TR/2001/REC-SVG-20010904/DTD/svg10.dtd">
<svg version="1.0" xmlns="http://www.w3.org/2000/svg"
 width="335.000000pt" height="745.000000pt" viewBox="0 0 335.000000 745.000000"
 preserveAspectRatio="xMidYMid meet">

<!-- Added golden circle background with gradient -->
<defs>
  <linearGradient id="goldGradient" cx="50%" cy="50%" r="50%" fx="50%" fy="50%">
    <stop offset="0%" style="stop-color:#f5c776; stop-opacity:1" />
    <stop offset="30%" style="stop-color:#F1C87D; stop-opacity:1" />
    <stop offset="60%" style="stop-color:#DC9618; stop-opacity:1" />
    <stop offset="100%" style="stop-color:#ebb046; stop-opacity:1" />
  </linearGradient>
</defs>

<!-- Positioning the circle in the middle of the academic elements -->
<circle cx="50%" cy="50%" r="25%" fill="url(#goldGradient)" />

<g transform="translate(0.000000,745.000000) scale(0.100000,-0.100000)"
fill="#5E46EB" stroke="none">
<path d="M1540 4435 c-74 -30 -136 -55 -137 -55 -2 0 -3 -4 -3 -10 0 -11 103
-60 125 -60 10 0 15 -10 15 -30 0 -34 3 -35 83 -19 50 10 100 7 187 -13 11 -2
16 7 18 30 2 23 8 32 22 32 14 0 17 -5 13 -21 -6 -21 13 -42 29 -33 4 3 8 21
8 39 0 30 5 37 35 49 40 17 45 32 13 41 -13 4 -34 14 -48 23 -22 14 -207 82
-220 81 -3 0 -66 -24 -140 -54z"/>
<path d="M1679 4113 c-1 -4 -1 -71 0 -148 l2 -140 -31 55 c-17 30 -49 74 -71
96 -34 35 -40 47 -37 75 3 32 1 34 -27 31 -31 -2 -225 -91 -225 -103 0 -3 29
-18 65 -34 66 -28 79 -40 48 -48 -13 -3 -8 -9 20 -21 55 -24 45 -29 -14 -6
-57 23 -69 20 -69 -16 0 -19 7 -28 30 -35 17 -6 30 -15 30 -19 0 -11 -30 -21
-42 -14 -13 8 -28 -15 -28 -44 0 -18 10 -27 48 -42 26 -11 60 -27 76 -36 41
-24 216 -84 240 -84 36 1 69 26 70 52 2 25 1 25 -33 13 -23 -8 -38 -20 -43
-36 -6 -20 -7 -18 -5 11 2 27 -3 37 -23 47 l-25 14 25 -3 c23 -3 25 0 28 44 2
37 7 46 20 45 14 -1 126 38 267 93 16 6 12 9 -23 16 l-44 9 83 36 c46 19 84
40 86 45 3 10 -213 114 -236 114 -6 0 -11 -14 -11 -31 0 -21 -11 -44 -35 -72
-20 -23 -49 -68 -66 -102 l-30 -60 2 149 c2 109 0 151 -9 154 -7 2 -13 0 -13
-5z m-180 -239 c14 -12 -19 -1 -35 12 -18 14 -18 14 6 3 14 -6 27 -13 29 -15z
m387 -9 c-11 -8 -25 -15 -30 -15 -6 1 0 7 14 15 32 19 40 18 16 0z m-351 -13
c-3 -3 -11 0 -18 7 -9 10 -8 11 6 5 10 -3 15 -9 12 -12z m105 -32 c8 -5 11
-10 5 -10 -5 0 -17 5 -25 10 -8 5 -10 10 -5 10 6 0 17 -5 25 -10z"/>

<path d="M1738 3758 c-35 -9 -38 -13 -38 -44 0 -37 10 -41 50 -19 18 10 25 22
25 44 0 17 0 31 0 30 0 -1 -17 -6 -37 -11z"/>
<path d="M1835 3719 c-55 -27 -89 -47 -75 -43 50 13 210 79 210 86 0 17 -39 5
-135 -43z"/>

<path d="M1567 3529 c-13 -8 -17 -18 -12 -37 3 -15 -1 -48 -9 -74 -10 -33 -10
-50 -3 -57 15 -15 27 -14 27 3 0 25 19 28 46 7 29 -23 54 -27 54 -10 0 6 -10
19 -22 29 l-22 17 27 32 c31 37 34 63 11 85 -18 18 -70 21 -97 5z m68 -38 c3
-5 -3 -17 -12 -27 -11 -11 -18 -13 -21 -5 -9 28 18 55 33 32z"/>
<path d="M1728 3526 c-8 -7 -20 -44 -26 -81 -10 -54 -10 -70 0 -82 11 -14 14
-12 24 12 7 18 23 32 44 39 45 15 51 36 10 36 -27 0 -31 3 -28 22 2 14 11 24
23 26 11 1 31 5 45 8 24 5 24 6 6 20 -25 18 -80 18 -98 0z"/>
<path d="M1740 3303 c0 -21 -6 -64 -14 -95 -11 -47 -11 -60 0 -69 15 -13 29 9
39 63 6 32 9 36 25 26 13 -9 16 -20 13 -49 -5 -31 -2 -38 15 -44 23 -7 62 9
62 26 0 6 -9 7 -21 4 -19 -6 -21 -4 -16 16 4 13 7 29 7 35 0 7 11 15 25 18 26
7 35 26 12 26 -7 0 -17 10 -22 22 -13 28 -35 35 -35 11 0 -22 -18 -43 -37 -43
-8 0 -13 13 -13 33 0 31 -14 57 -32 57 -4 0 -8 -17 -8 -37z"/>
<path d="M1100 3284 c-57 -65 -63 -126 -15 -144 25 -10 77 1 101 21 21 17 7
30 -22 19 -42 -16 -64 -12 -64 12 0 30 47 88 72 88 14 0 18 5 14 16 -3 9 -6
18 -6 20 0 2 -11 4 -24 4 -15 0 -36 -13 -56 -36z"/>
<path d="M2135 3310 c-7 -12 12 -40 27 -40 13 0 6 43 -9 47 -6 2 -14 -1 -18
-7z"/>
<path d="M1253 3259 c-13 -5 -25 -20 -29 -36 -3 -15 -8 -35 -10 -44 -2 -8 2
-23 10 -34 12 -16 17 -17 44 -6 73 31 59 148 -15 120z m27 -47 c0 -23 -26 -59
-36 -50 -8 9 15 68 27 68 5 0 9 -8 9 -18z"/>
<path d="M1346 3262 c-2 -4 -6 -34 -7 -67 -5 -75 12 -80 54 -17 33 50 41 50
27 2 -5 -19 -6 -38 -1 -43 15 -15 35 24 35 71 1 38 -2 47 -18 50 -12 3 -26 -5
-37 -19 -18 -24 -19 -24 -19 -3 0 21 -25 40 -34 26z"/>
<path d="M1672 3231 c-7 -21 -20 -45 -29 -52 -15 -13 -16 -11 -9 11 18 60 19
70 2 70 -19 0 -46 -49 -46 -83 0 -32 23 -51 47 -39 10 5 23 7 29 5 11 -4 44
64 44 91 0 7 -6 19 -13 25 -11 9 -16 3 -25 -28z"/>
<path d="M1943 3259 c-28 -10 -43 -39 -43 -82 0 -39 17 -51 53 -38 38 15 52
41 48 93 -1 23 -31 37 -58 27z m27 -39 c0 -16 -23 -60 -32 -60 -11 0 -10 13 2
44 9 25 30 36 30 16z"/>
<path d="M2080 3260 c-6 -4 -20 -5 -30 -3 -14 4 -18 -5 -23 -53 -3 -32 -4 -62
-1 -66 9 -13 34 12 34 33 0 10 14 34 30 53 22 24 26 35 17 39 -8 3 -20 2 -27
-3z"/>
<path d="M1507 3242 c-22 -24 -21 -31 6 -60 l22 -25 -33 5 c-18 3 -35 1 -38
-4 -8 -12 47 -30 74 -23 33 8 38 32 12 61 -17 17 -20 24 -9 26 8 0 19 2 24 3
6 2 14 3 19 4 5 0 3 8 -4 16 -17 20 -53 19 -73 -3z"/>
<path d="M2125 3237 c-4 -13 -5 -41 -3 -63 3 -37 4 -38 16 -17 17 30 20 95 5
100 -7 2 -15 -6 -18 -20z"/>
<path d="M2212 3238 c-11 -13 -25 -35 -31 -50 -13 -36 4 -49 60 -45 43 3 44 3
51 47 5 28 4 48 -3 57 -17 20 -53 16 -77 -9z m32 -59 c-36 -40 -46 -17 -12 27
19 24 23 26 26 10 2 -9 -4 -26 -14 -37z"/>
<path d="M1607 3103 c-4 -3 -7 -15 -7 -25 0 -11 -7 -18 -19 -18 -26 0 -43 -23
-44 -62 -2 -31 0 -33 32 -33 33 1 36 3 48 50 19 76 15 114 -10 88z m-28 -99
c-14 -18 -24 -11 -15 11 3 9 11 13 16 10 8 -5 7 -11 -1 -21z"/>
<path d="M1284 3088 c-25 -40 -44 -85 -44 -105 0 -27 18 -31 27 -5 10 27 27
33 33 11 3 -11 9 -20 15 -20 13 0 25 57 14 68 -4 4 -9 19 -11 32 -3 28 -22 38
-34 19z"/>
<path d="M1660 3085 c-7 -8 -11 -15 -9 -16 33 -7 49 -4 47 9 -4 22 -23 25 -38
7z"/>
<path d="M1881 3073 c0 -10 -4 -36 -10 -58 -10 -38 -1 -69 14 -46 11 19 16
121 6 121 -5 0 -10 -8 -10 -17z"/>
<path d="M1378 3043 c-8 -10 -18 -26 -22 -37 -13 -38 38 -63 64 -31 10 13 9
15 -9 15 -27 0 -28 30 -1 37 12 3 19 11 17 17 -6 18 -32 18 -49 -1z"/>
<path d="M1466 3045 c-9 -9 -16 -32 -16 -51 0 -32 1 -34 33 -30 31 3 32 5 32
47 0 49 -20 63 -49 34z m21 -40 c-4 -8 -11 -15 -17 -15 -6 0 -6 7 2 20 14 22
24 19 15 -5z"/>
<path d="M1656 3045 c-24 -24 -30 -56 -13 -72 16 -16 57 -10 57 8 0 6 -9 7
-20 4 -11 -4 -20 -2 -20 4 0 6 9 11 20 11 25 0 36 25 20 45 -16 19 -25 19 -44
0z"/>
<path d="M1716 3019 c-10 -63 7 -78 36 -31 16 25 17 26 18 5 0 -33 18 -38 32
-9 14 33 27 33 20 1 -2 -14 0 -25 6 -25 14 0 34 63 26 83 -7 19 -29 22 -39 7
-5 -8 -11 -7 -21 1 -11 9 -17 9 -28 0 -10 -8 -16 -9 -21 -1 -12 20 -23 9 -29
-31z"/>
<path d="M1921 3034 c-24 -30 -26 -45 -9 -62 16 -16 43 -15 58 3 11 13 8 15
-14 15 -24 0 -25 2 -16 20 6 11 18 20 26 20 9 0 14 6 12 13 -8 22 -35 18 -57
-9z"/>
<path d="M2021 3036 c-14 -14 -21 -33 -19 -48 2 -19 9 -23 38 -22 35 0 35 0
35 44 0 54 -19 63 -54 26z m39 -14 c0 -11 -22 -32 -32 -32 -5 0 -4 9 2 20 11
20 30 28 30 12z"/>
</g>
</svg>